<svg xmlns="http://www.w3.org/2000/svg" xmlns:xlink="http://www.w3.org/1999/xlink" version="1.1" width="334pt" height="237.58155pt" viewBox="0 0 334 237.58155">
<path transform="matrix(1,0,0,-1,0,237.58155)" d="M200.84207 220.62926C204.8949 213.36081 206.92131 209.72658 208.10411 208.63896 209.6161 207.24863 209.78936 207.14688 211.74 206.50339 213.26596 206 215.61322 206 220.30773 206H305.01094C315.15806 206 320.23164 206 324.1073 204.02524 327.51646 202.2882 330.28819 199.51647 332.02525 196.10732 334 192.23163 334 187.15807 334 177.01094V28.98906C334 18.841935 334 13.768372 332.02525 9.892685 330.28819 6.483536 327.51646 3.711807 324.1073 1.974762 320.23164 0 315.15806 0 305.01097 0H28.989083C18.841946 0 13.768376 0 9.892689 1.974762 6.483537 3.711807 3.711811 6.483536 1.974762 9.892685 0 13.768372 0 18.841935 0 28.98906V177.01094C0 187.15807 0 192.23163 1.974762 196.10732 3.711811 199.51647 6.483537 202.2882 9.892689 204.02524 13.768376 206 18.841937 206 28.989058 206H123.69225C128.38678 206 130.73404 206 132.26 206.50339 134.21065 207.14688 134.3839 207.24863 135.89589 208.63896 137.07869 209.72658 139.1051 213.36081 143.15792 220.62924 148.79662 230.74187 159.59957 237.58155 172 237.58155 184.40044 237.58155 195.20339 230.74187 200.84207 220.62926Z" fill="#ffffff" fill-rule="evenodd"/>
</svg>
